/* XPM */
static char *BMA150[] = {
/* width height num_colors chars_per_pixel */
"    70    70      253            2",
/* colors */
".. c #04020c",
".# c #6c8289",
".a c #14444c",
".b c #4c4e54",
".c c #b4c2c5",
".d c #04222c",
".e c #34565e",
".f c #4c6a74",
".g c #8ca2a4",
".h c #d4e2e4",
".i c #344244",
".j c #242223",
".k c #8c8e90",
".l c #6c6a70",
".m c #c4d3d4",
".n c #344e52",
".o c #041217",
".p c #243434",
".q c #4c5e64",
".r c #ecf2f3",
".s c #0c323c",
".t c #244e59",
".u c #7c929a",
".v c #acb1b4",
".w c #1c1618",
".x c #5c767c",
".y c #24444c",
".z c #34363a",
".A c #7c8284",
".B c #ece6ec",
".C c #444644",
".D c #d4d2d8",
".E c #5c5f5c",
".F c #5c6a6c",
".G c #6c767d",
".H c #142224",
".I c #344654",
".J c #041a28",
".K c #c4c6c8",
".L c #444e53",
".M c #243a44",
".N c #3c5e64",
".O c #9caeb4",
".P c #8c9aa4",
".Q c #143a44",
".R c #244a58",
".S c #4c565c",
".T c #e4eaec",
".U c #4c666c",
".V c #f4faf9",
".W c #d4dade",
".X c #5c727b",
".Y c #344a4c",
".Z c #7c8a92",
".0 c #7c7e84",
".1 c #44565c",
".2 c #242a2d",
".3 c #acbabc",
".4 c #244554",
".5 c #6c7e85",
".6 c #142e34",
".7 c #040a0e",
".8 c #9ca2a4",
".9 c #e4e2ea",
"#. c #3c4242",
"## c #344e5c",
"#a c #141214",
"#b c #545e63",
"#c c #1c4a58",
"#d c #849aa3",
"#e c #5c6a74",
"#f c #848a8e",
"#g c #748a94",
"#h c #bccace",
"#i c #fcf6fc",
"#j c #1c3238",
"#k c #1c1e1d",
"#l c #747676",
"#m c #1c2222",
"#n c #c4ced4",
"#o c #2c3a41",
"#p c #5c5a5c",
"#q c #dcdae2",
"#r c #74828a",
"#s c #1c424d",
"#t c #8c969c",
"#u c #ccdadc",
"#v c #0c1216",
"#w c #f4f2f4",
"#x c #2c4e5b",
"#y c #84929a",
"#z c #343e44",
"#A c #eceef0",
"#B c #5c666c",
"#C c #141a1a",
"#D c #9c9d9c",
"#E c #545a5f",
"#F c #342e34",
"#G c #bcc2c6",
"#H c #0c2a3c",
"#I c #547274",
"#J c #dce2e4",
"#K c #6c727a",
"#L c #ccd2d5",
"#M c #2c4248",
"#N c #444e5c",
"#O c #1c3a45",
"#P c #445664",
"#Q c #2c2a2c",
"#R c #bcbec0",
"#S c #140a0c",
"#T c #9caab0",
"#U c #545258",
"#V c #3c5964",
"#W c #546a73",
"#X c #34454c",
"#Y c #949294",
"#Z c #3c4e54",
"#0 c #2c3232",
"#1 c #4c606c",
"#2 c #143238",
"#3 c #acb6b9",
"#4 c #64767f",
"#5 c #3c3a3c",
"#6 c #d4d6e4",
"#7 c #3c4a54",
"#8 c #cccacc",
"#9 c #a4b6bc",
"a. c #646264",
"a# c #949ea2",
"aa c #0c2228",
"ab c #0c060c",
"ac c #94a2a9",
"ad c #84828c",
"ae c #646a68",
"af c #0c1e24",
"ag c #445e6a",
"ah c #a4aeb4",
"ai c #fcfafc",
"aj c #b4bec2",
"ak c #2c4556",
"al c #0c0a0c",
"am c #3c505c",
"an c #646d74",
"ao c #24262c",
"ap c #041624",
"aq c #b4b2b4",
"ar c #343a44",
"as c #444a54",
"at c #5c626c",
"au c #c4cad4",
"av c #4c5a64",
"aw c #7c8e9c",
"ax c #1c2b34",
"ay c #9ca6b4",
"az c #3c464c",
"aA c #54616c",
"aB c #848e9c",
"aC c #747a84",
"aD c #1c242c",
"aE c #2c3e4c",
"aF c #748694",
"aG c #1c465c",
"aH c #f4f6fc",
"aI c #2c5164",
"aJ c #8496a4",
"aK c #141e24",
"aL c #dce4ec",
"aM c #546a7c",
"aN c #2c4a54",
"aO c #546670",
"aP c #647278",
"aQ c #747e84",
"aR c #2c363e",
"aS c #241e1f",
"aT c #ccced1",
"aU c #949694",
"aV c #f4eef2",
"aW c #646668",
"aX c #747274",
"aY c #a4aaac",
"aZ c #3c4a4c",
"a0 c #0c2234",
"a1 c #04060b",
"a2 c #4c525a",
"a3 c #345a5c",
"a4 c #344644",
"a5 c #242624",
"a6 c #8c9292",
"a7 c #6c6e6c",
"a8 c #04161c",
"a9 c #4c6264",
"b. c #ecf6f4",
"b# c #1c1a1c",
"ba c #343a3c",
"bb c #7c868c",
"bc c #eceaf0",
"bd c #444a4c",
"be c #d4d6db",
"bf c #6c7a83",
"bg c #14262a",
"bh c #344a54",
"bi c #c4cacc",
"bj c #445254",
"bk c #243e4a",
"bl c #8c9ea7",
"bm c #143e48",
"bn c #4c5a5c",
"bo c #e4eeec",
"bp c #d4dee1",
"bq c #7c8e94",
"br c #445a5c",
"bs c #242e34",
"bt c #040e13",
"bu c #9ca6ac",
"bv c #e4e6eb",
"bw c #3c4644",
"bx c #34525e",
"by c #141616",
"bz c #546264",
"bA c #5c6e76",
"bB c #848e94",
"bC c #1c363c",
"bD c #747a7c",
"bE c #1c2624",
"bF c #2c3e43",
"bG c #dcdee3",
"bH c #74868b",
"bI c #1c4651",
"bJ c #0c161c",
"bK c #f4f6f4",
"bL c #2c525c",
"bM c #84969b",
"bN c #141e1c",
"bO c #bcc6cb",
"bP c #0c2e34",
"bQ c #dce6e4",
"bR c #ccd6db",
"bS c #2c464a",
"bT c #44525c",
"bU c #1c3e4c",
"bV c #445a64",
"bW c #2c2e2e",
"bX c #546e74",
"bY c #3c5254",
"bZ c #2c3634",
"b0 c #14363c",
"b1 c #647a82",
"b2 c #94a6ac",
"b3 c #646e6c",
"b4 c #44626c",
"b5 c #a4b2b7",
"b6 c #fcfefc",
/* pixels */
"b6b6b6b6b6b6b6b6b6b6b6b6b6b6b6b6aiaiaiaiaiaiaiaiaibKbKbKbKbK#wb.#w.r.r#A#A#A#Abo#A.Tbc.T.Bbvbvbvbvbvbv.Tbc#A#w#wbKai.Vaib6b6b6b6b6b6b6b6b6b6",
"b6b6b6b6b6b6b6b6b6b6b6b6aiaib6aiaiai.Vai.Vai.VbKbK#wbK#w#w#w.r.r.r#A#Abcbobc.Tbvbv.Tbvbvbv#JaLbQaL#Jbvbv.Tbc#A.rbK.V#ib6aib6b6b6b6b6b6b6b6b6",
"b6b6b6b6b6b6b6b6b6b6b6b6aiaiai.V.VbK.VbKbKbK#waHaH#w#w.r#w#A#A#A#A.T.T.Tbv.TbvbvaLaLaLbG#JbG#JbGbGaLbG#Jbv.T#AaV.r#wbKaiaib6b6b6b6b6b6b6b6b6",
"b6b6b6b6b6b6b6aib6aiaiaiaiai#iaibKbKbKbKaHb.#w#A.r#A#A#A#A#A.Tbc.T.Tbv.9bv.9aL.9bGbGbG#qbp#qbpbpbp.WbGbG.9bv.T#A#AbKbKbKaib6b6b6b6b6b6b6b6b6",
"b6b6b6b6b6b6b6aiaiaiai.VbKbKbK#wbK#w#wb.#A.r#A#A#A#A.T.T.TbvbvbvbvbvaLaLbGbGbG.W#q.W.W.W#qbebe.W#u#Ga6bDbG#Jbv.T#A#w#wbKaiaib6aib6b6b6b6b6b6",
"b6b6b6b6b6b6aib6aiaiaibKbK#w#w#w.r.r#A.r#Abcbobc.T.Tbvbvbv.9aL.9aLbGbGbG.W#q.W.Wbebebebe.DbO#Tbb.LaR.zba.K#J.9.T#A.r#wbKaiaiaib6b6b6b6b6b6b6",
"b6b6b6b6aib6aiai.VbKaH#w.r.r.r#A#A#A#A.T.T.Tbvbvbv.9aL.9aLbGbGbp#qbG.W#q#6#6bRbR#L#L#G#tbz.ibaaRbZaRaRaR.0.W#Jbv.T#A#w#wbKaib6b6b6b6b6b6b6b6",
"b6b6b6b6b6aib6ai#i#w#w.r#A#A#A.Tbc.T.T.TbvbvaL.9aLaLaLbGbGbG.W#q.W#6.WbRbRbRau#TaB#b#o#o#zaR#oaR#o#oaRaR.L.DbG#J.Tbc.rbKbKaiaib6b6b6b6b6b6b6",
"b6b6b6aib6aiaibKbKbKaV#Abc.Tbc.Tbvbv.9bvaLbGaLbG#q#q#q.W#6.WbebebebRaT.ca#bAaz#M#o#o#o#o#z#o#o#oaRaRaRbaaRaY.W.9.T.T.r#wbKbKaiaib6b6b6b6b6b6",
"b6b6b6b6b6aiaibK#w.r#A.T.Tbvbv.9#JaL#J#JbGbG#q#q.W.W.W.W#6bebe#nahaQ.1aEaE#MbFbF.MbFbF#obF#obF#zbF#o#o#oaraW.Wbp.9.T#A.r#wbKaib6aib6b6b6b6b6",
"b6b6b6b6ai#ibKbK#w#Abc.TbvaLaLbG#J#Jbpbp#q.W#q#6be#u#u#L.cbu#4az.iaE.iaEbFbF#MbF#M#MbFbFbF#obF#zbFar#z#o#z#Maj#q#Jbv#A#A#wbKaiaiaib6b6b6b6b6",
"b6b6b6aiaibKaH#w#A.TbvaL.9bGbG#qbpbpbp.W.WbR#6bR.m.3.ZbnbhbFaEak.i.I.I#M.i#M.i#MbFbF#M.i#MbFbF#z.i.i#z.i#M.i#f.WbGbv.Tbc#wbK#ibKb6b6b6b6b6b6",
"b6b6b6aiai.V#w#w#A.Tbv.9bGbG#q.W.W#ubRbR.m#Gay#r#N#M.i#Mak#M.I.I.I#M.IaE#X#M.i#M.i#M#M#M#M.i.i.ibF#z.ibF.ibFa2.m#q#Jbvbc#A#wbKaiaiaib6b6b6b6",
"b6b6b6aiaibK#w#A.TbvaLaLbG.WbebebRaTaj#yav#X.i#z#MbFakak#z#M.I.ibS.i.I.i#M#X#M#M#Ma4.i.ia4#M.i.i.i.i.i#zbF.iba.8be#J.9.B#A#w#wbKaiaib6b6b6b6",
"b6b6b6ai.VbK#w#A.Tbv#Jbpbp#ubObubAaZ#obZ#M#M#M#MaE.i.I.I.I.I.i.I.I#M.I#M.i.I#X#M#X#X#M.i#M.i#M.i.i.i#z#z.i.i.i.GbebG#Jbc#A#AbKbKaiaib6b6b6b6",
"b6b6b6ai#ibK#w#AboaLbR.ca#.Fa4#MbF.i#M#M#MbFak#zaEak.i#ybV.i.Iak.i.I#X.I.I.I#X.Iak.i.I#M.ibS#X#MbS.I.i.i.i.i#M.ibObp#Jbvbo#A#wbKbKaib6b6b6b6",
"b6b6b6ai.V#w.rbQaj.5.1#zbFbF.ybFbk#M#M#M.i#X.5.IaE#z.I.P.Pam.I#X.I.I#X.i.I#X.I#X#X.I#M.i.Ia4#Xa4#X#X.i#..i#z.i.ibb#qbGbQ.T#A.r#wbKaib6b6b6b6",
"b6b6b6aiaibK#wa.#z#MbF#MaEbFbFbk#MbFa9#g#Z.#aB#1aE#M.I#daA#g#Z#X#X#X.I.I.I.Y.Ibh.i#X.I#X#MbS#X#XbS#X.iaz.I.i.ia4aZ#L#q#Jbvbo.r#wbK#iaib6b6b6",
"b6b6b6ai.V#w#Aae.i#MbFaE.ibh.1bj#M#M.q#ybqaJ.1#r#M.i.IaJbV.u.5.I#X.I#X.Ibhbh#Xbh.Ibh#7#Xbh#X.Y#X.Y#X.I#Xaz.iazaza4.vbpbGbv.T#A.r#w.Vaib6aib6",
"b6aib6aibKbKaV#l.i#M.i.S.uawbXbfbA#M#X#g#X.q.I.u.I.IbhblaF#1bHaO.Ibhbh#7bh#7#7#7bh#7.Ibh#Xbh#X.Y#X#Xazaz#..I.iaza4.F.W#q#Jbvbc#A#wbKaiaib6b6",
"b6b6aiai.V#waVbB.p#X#M#P#y#M#Mam.Z#MaE#r#P#X.I#4.q.ibhaJ#7#Xam.1#7bh#7bh#7bh#7bh#7bh#7#7bh.Ibh#7.Y#Xaz.iazaz.I.ia4bd.K#qbGbvbc#A#wbKbKaib6b6",
"b6b6b6ai.VbK.r.vaK#X.I.iaJavbAaJaw.I.iaOb1.I.i#PaF.I.I#P.i.Ibh.I#7#Z#Z#7am#Z#7ambh#7bh.Ibh.I.Y.Y.Y#Z#7az.IazazazazaZ#t.WbG#Jbvbc.rbKbKaiaib6",
"b6b6b6aiaHbK.rbG.o.i.i.I#4aw#PbhbA.X.Iam#ybh.I#Mam.i.I#Xbhazbh#7bhbhbh#7bham#Zam#7#Z#7bh#7#7.Y#7#Z#X.Y#7.YaZ#XazaZ#X.SbRbGbGbv#A.r#wbKaiaib6",
"b6b6aiaiaHaH#AbvbyaRaE.IbVaF.i.I#Bb1.i#X#1.I#X.Ibh.I.i#X.Ibhbhamav#7#7#Z#7#7am#Z#7bham#7#ZbhaZ.Y.n.n#Z.Y#7.YaZ#7az#7aZ#T.WbGbvbo#A.r#w.Vaiai",
"b6b6b6#iaH#AbpauaoaD.IbhbSaJaF#dbfbh.I.Ibh.I#X.I#Xbh.Ibham.5aJ.ZaJ.U#7amambham#7ambh#Zam#7ambh#7#Z#ZaZ.n.YaZ#7aZ#7#Zazan#qbG#Jbv#A.rbKbKaib6",
"b6b6.VbobR.cb2#r.j#v.YbS.I.F#P#Z.I#7bh.I.Y#7.I#7am#1#7bhaPbfam#7#W#rbh#7#Zam#Zam#7#Zam#Zam#Z#Z.Y#Z#Z#Z#Z#Z#7aZ#7aZaZaz.LbObpbGbv.T#A#wbKbKai",
"b6aibcbO#y#Ia3akaf.7bFbh#X.I.Y.Ibh#Zbhaz.Ibh.qbMawaP#7bhbTawbh#7#7.uamam#Z#7amam#Zamam#7amamam#7.qb1bHbMbq.Z#4.SaZ#7aZas#f.hbG#J.T#A#wbKaiai",
"b6aibvb5#IbL#c#saa.7ax#Xbh.Y.Iam#7#7#7bhbh#7#1aFbh#7.Ibh#7aJ#Pbh#ZaF#W#7amam#ZbTamambTamam#Z#1.Zb1.qbjbY#ZbY.S.G.ZbnazaZ.1.mbp.9bvbo#A#wbKai",
"b6b6#Aajb1bx.R#s#j.7bJ#ZaZ.namaAaw.Uamaz#7#7ambMamaO#4bhbhbf.5#7bhaOaw#7amamamam#Zam#Z#Zam#BawbVam#Z#ZbYbY#y#r.S.SbBbnaZ#ZaYbpbGbvbc#A#AbKai",
"b6b6#w.m.Z#V#x.y#O.7a1#.#Z.n#1bA#Wawbhbh#Zbh.I#raw#B.#bA#7.1#d#1.5.P.5am#Z#7#Z#Namam#NamaO#r.1amambYbYbjbYb1aQbq.GbTbB.S#Za7.Wbp#J.Tbc#w#wbK",
"b6b6#i#Ja#aM##aG#s.Ja1.2#ZbxbxaZambl.1#7#7bh#7#7bhbhaA#yam#7bA#4aA#P#ZbhamamambYam#ZbTbTaw#PaF#4am#Z#Z#Z.1.GbMbjbH#Bbnbbbd#ZajbG#Jbvbc#A#wbK",
"b6b6ai.T#3.Xbx.RbIbPa1b#aZbx.nbhambqbX#4bX#7amamav.X#y#gbh#7amam.n#7amam#ZbT#Nam#Namam.xaPa9aJbHambnb1bMbM.GbM#bbj#t.LaQ.Lbda6.WbGbvbc#A#wbK",
"b6b6b6aH#h#r#P.RaG.Q.7alaz##.n#Z.naA#gaA.uamam#e#4#W#PbTamam#7#7am#7am#ZambTambYbjambTawav.5aOaB.P#r#W.1bjbY.FaQ#ZbBa2aPbzbd#E#LbG.9.T#A#wbK",
"b6b6b6aH.WaJ#1aI.RbU.o..aRam###Z#7#Pblawacam#7am#Zamamam#Z#7bham#Zam#Zamam.1ambTambTambqbTbHbnaPbf#Zbj.LbjbY.LbB.LbbavaPatasbdah#q.9bvbc.rbK",
"b6b6aib6.T.O.XbL.t.4bga1.H#7#ZambfaJaPbV#7am#Z#Zamam#7#Z#7amam#Zamam#NambTamamambTam.1#y.SaQ#b.S.Z.L.LbnaPbB#t.PbAa6a2aCbnbdasae.W#J.T#A.r#w",
"b6b6b6b6#A#G.##VaIbIbC.7.7azamamamambhbham#7bh#Z#N#Zamamamam#Zamam#NbYambTambT.1am.1bTbbaO#e#r.Lbb.Z#ybHanavbTbza#bba2#f.Lasasas#8bGbvbc.r.r",
"b6b6b6b6#w#L#yb4aI.Rbkapa1.z#7bham#7#7#7#Zam#7amamam#N#Zam#Zam#7amambTambTambT#PbTam#P#1.Zbj#y#ebA#t.S.Lbj.L.L#Z#favanbfasasbdas.k#JbQbc#A.r",
"b6b6b6b6aibG#TaMbx#xaGa0..#Q.L###Z#Zbham#Zamam#Zam#Z#ZambTam#N#ZambTambT.1am.1am.1am#PbT.5anbn.ZbHa#bnbj.1bTbjbT.S#bbba2as.Lbd.L#b.W#J.T.rbK",
"b6b6b6b6ai.Tajb1#V#xaG#2..#v#7##amam#7am#Zamam#Zamamam#ZambTambTbTambT#VbT.1.1#P.1#P.1#P#PbqaP.1#KblaO.S.LbjbTbTanbB.S.L.bas.L.L.Laj.9.T#A.r",
"b6b6b6b6aib.#n#gagaI#c#Obta1#.amam#7#Zamam#Nam#Nam#ZbTambTambT.1am.1ambT.1#P#P.1#P.1bVambTbVb1#yan.q.1.S.1bnan#y.Ga2bTa2bTa2.L.L.L#K#Jbc.r#w",
"b6b6b6b6b6.Vbpa#.fbL.R#safa1.p#7bYambTambTbYamambTamamamam.1am.1am.1bT#VbT.1#P#P.1#P.1bVbTbV.S.q#4#rbb.Z.ZaQaP.qbjbj.Sa2.S.1a2.S.La2bi.T#A.r",
"b6b6b6b6b6ai.Tb5#4aI.tbI.6a1#CbTam#ZambYambTam#NbYambT.1bTam.1am#P.1ambT.1#P.1bVbVbV.1av#P#P.1br.1.1.1.Sbjbn.S.1a2a2.S.S.S.Sbj.Sa2.L.k.T#A.r",
"b6b6b6b6b6b6#wbOaF#VaN.4#Obt.7#.am#VbYbTbTam.1am.1bT.1amam.1bTbT.1#P.1#P.1.1#PavavbV#P.1avbVbnbn.qbnbn.1.S.1.S.1.S.S.S.Sa2.Sbdbabs#m#l.T#A.r",
"b6b6b6b6b6b6#wbR.Pb4#x.RbU.Ja1bWambTam#Pam.1bTbT#VbT.1ambTam.1am.1#P.1#P#PbVbr#PbVav.1bVav.1agbrbrbrbnbn.Sbn.S.S.S.Sa2az.z.2#m#k#kaS#l.B#A.r",
"b6b6b6b6b6b6aiaLah#I##.R#s#Ha1b#amambT#P.1#VbTam.1bT#P.1bT#Pam#P#P.1bVav.q#P.SbVavavbVav.qavav.qag.qavbn.Sbnbrbnbd#0ao#m#m#mb##k#k#kaX.T#A.r",
"b6b6b6b6b6b6aibo.c.##V.tbIbma1#SambTbT#VbTbT.1#P.1#P.1#P.1#P.1.1#PbV.SbVbVavbVavbV.qbVav.qagav.q.q#E.q#bbna4.p.2#k.j#k#kaS#k#k#k#k#ka7bc#AbK",
"b6b6b6b6b6b6aibK#Lbqag#x.R#s.oab#zbT#PbTambT#PbVbV.1#P.1.1#PbV#Pav#Pavav.qbVav#1av#1#1#1av#1.q#bbnavbw#0bE#m#m#m#k#k#k#k#kb#b#b#b#b#a7bc.r#w",
"b6b6b6b6b6b6ai.V.hacaOaI.t#sa0a1bgbT#V.1.1.X#4bV.SbV#P#P#PbrbVavbVav#1bVbV#P.q.q.qav#1.q.q.qbn#z.pbE#m#m#m#m#maS#kb##kb##kb##Cb#b#b#.lbc#A#w",
"b6b6b6b6b6b6b6aibc#3#4.e.R.4#j.7#v.b#N.S#g.Zbq.ZbV#PavbravavavbVav.qav#1avb4.q#1.qaOavaZba#Q.j#m#k#k#kaS#kaS#kb#b##kb#b#b#b#byb##C.waW#A.r#w",
"b6b6b6b6b6b6b6b6.rbObH#V.t.4#Oap.7#..SaA#d.#bHaJbVavbVavbV#1bV.qagav.q.q.q.q.qbzbj#o.2#k#m.j#m.j#kaS#k#k#k#kb#b#b#byb#b#b##Cb##Cb#b#a..B#wbK",
"b6b6b6b6b6b6b6b6ai#u.Pb4#x.4bU.d..bs.S.1.#.P#daPbVavbV#1av#1bVbV#1#1avbz.Sbw.za5.j.j#k#k.j#k#k#k#k#k#kb#b##kb##Cb#byb##C.wbyby.wbyby.E.r#wbK",
"b6b6b6b6b6b6b6b6aibQ.O.x.e#x#s.sa1bJa2.1bn#1#1avbVbVbVav#1av.q#1#bbnas#0a5#m#m#k#k#k#k#kb##kb#b#b#b#b##kb#b#b#.w#Cb#b#b##C.wby#Cb#by#p#A#wbK",
"b6b6b6b6b6b6b6b6ai#A.c.#.e.tbI.Qabbtaz.SbVavbVavagbn.qavav#ba2#zbW.2#m#k#kaS#kaS#k#kb##kb#b#b#b##kb##C.w#Cb##C#Cb##Cby#vbyby#vbybybW#Y#A#wai",
"b6b6b6b6b6b6b6b6b6#w#L#tb4bL#cbUbJ.7.p.S.1.1.q.q.q#bbnbd#zbW#ma5#m#maS#kaS#k.j#k#k#k#kb#byb##Cb#b#b##Cb#b##Cb#b##C#Cbybyby#C#.b3#Dbe.T#wbKai",
"b6b6b6b6b6b6b6b6b6aibGb2bX#x.R#sbg.7.Hbn.Sbnavbnbd.z.2#k.j#k#m#m#m#k#kb##k#kb#b##kb#b#b#.w#Cb#.w#Cb#b#byb#.wby#CbybybNbWa7.8#8bGbo#AbK#wbKai",
"b6b6b6b6b6b6b6b6b6ai.Tajb1bY.y#s.6btbt.b.S.ibZ.2a5.j.jaS#k#k#k#k#k#k#kb##kb#b##kb#b#b#b##C.wb##Cb#byb#b##Cb#byb#.CbDaYaTbGbQ#A.rbKbKbK.Vaiai",
"b6b6b6b6b6b6b6b6b6ai.r#n.u.NaN.yb0a8.7#m.j.j#m.j#kaS#k#k#k#kb##kb#b#b#b#b#b##Cb##Cb##Cby#C#Cbyb##Cbybyby.2.b.Aaq#LbQ.B.r#wbKbKbKbKaiaiaib6b6",
"b6b6b6b6b6b6b6b6aib6bKbp.g.UaN.yb0.d.7.w.j#kaS#k#k#m#k#kb#b##kb#b#b#b#b#b##C.w#C.wb##Cb##C#C#C#Cby#Ca2ad#R.WbQbo#A#wbKbKbK#iaiaiaib6b6b6b6b6",
"b6b6b6b6b6b6b6b6b6aiaibv#9.X#x.ybm.6.7#aaS#kaS#k#kb##kb#b#b#b#b#.w#Cb#b##C.w#Cb#.w#Cby#Cby#C#F.Ea6.K.W#J.T.rbKbKbKbKaiaiaiaib6b6b6b6b6b6b6b6",
"b6b6b6b6b6b6b6b6b6b6ai#AbO#r.e.y.ab0.o#vaSb##k#kb##kb#b#b#b##Cb##Cb#b#byb#b#byb#bybybya5.EaU#GbGbQ#A.rbKbKbKbKaiaiaib6aib6b6b6b6b6b6b6b6b6b6",
"b6b6b6b6b6b6b6b6b6b6b6aHbebMbVaN.ab0bNbt#k#mb#b#b#b##C#C.w#Cb#b##Cbyb##C#C#Cbyby#5.l#D.K#qbQaV.rbKbK#ibKbKaiaib6b6b6b6b6b6b6b6b6b6b6b6b6b6b6",
"b6b6b6b6b6b6b6b6b6b6b6aibQah.FbhbIbkbg.7#k#kb#b##Cb#by.w#C.wbyby.wby#C#C#m.C.GaYaT.Wbv#A#w#w#wbK#iaiaiaiaib6b6b6b6b6b6b6b6b6b6b6b6b6b6b6b6b6",
"b6b6b6b6b6b6b6b6b6b6b6b6#Aaj#4amak.MbC.o#Cb#b##Cb##Cb#b##Cb#by.wbyby.C#laqbe#J.T#A.rbKbKbKbKaiai.Vaib6b6b6b6b6b6b6b6b6b6b6b6b6b6b6b6b6b6b6b6",
"b6b6b6b6b6b6b6b6b6b6b6b6.r.m.Z#Pak.4#OaKbyb#b##Cb#by.w#Cbybya5#U.Aaq.D.9.T#A#AbKbK.VbK.Vaiaiaib6b6b6b6b6b6b6b6b6b6b6b6b6b6b6b6b6b6b6b6b6b6b6",
"b6b6b6b6b6b6b6b6b6b6b6b6ai#qacaAbhakbkaxbJb##C#C#Cby#C#Q#E#f#R.W#J.T#A.rbKbK#i.V#i.Vaiaib6b6b6b6b6b6b6b6b6b6b6b6b6b6b6b6b6b6b6b6b6b6b6b6b6b6",
"b6b6b6b6b6b6b6b6b6b6b6b6b6.T#3bfambhbh#Mby#Cbyby#0.E#D#8#qbQ.r.rbKbKbKaiaiaiaiaib6b6b6b6b6b6b6b6b6b6b6b6b6b6b6b6b6b6b6b6b6b6b6b6b6b6b6b6b6b6",
"b6b6b6b6b6b6b6b6b6b6b6b6b6#waTac.Abf#4bfba#.aW#DbibG.T.r.r#wbKbKbKbK.Vaiaib6b6b6b6b6b6b6b6b6b6b6b6b6b6b6b6b6b6b6b6b6b6b6b6b6b6b6b6b6b6b6b6b6",
"b6b6b6b6b6b6b6b6b6b6b6b6b6ai#A#q.K#G.c#h#8be.9#A.r#wbKbKbKbKai.Vb6b6b6b6b6b6b6b6b6b6b6b6b6b6b6b6b6b6b6b6b6b6b6b6b6b6b6b6b6b6b6b6b6b6b6b6b6b6",
"b6b6b6b6b6b6b6b6b6b6b6b6b6b6aibK#waV#AaVbKbKbKbKbK.Vai.Vaiaiaiaib6b6b6b6b6b6b6b6b6b6b6b6b6b6b6b6b6b6b6b6b6b6b6b6b6b6b6b6b6b6b6b6b6b6b6b6b6b6",
"b6b6b6b6b6b6b6b6b6b6b6b6b6b6b6aib6aib6aib6aiaib6b6aiaiaib6b6b6b6b6b6b6b6b6b6b6b6b6b6b6b6b6b6b6b6b6b6b6b6b6b6b6b6b6b6b6b6b6b6b6b6b6b6b6b6b6b6"
};
