/* XPM */
static char *BMP085[] = {
/* width height num_colors chars_per_pixel */
"    70    70      225            2",
/* colors */
".. c #040404",
".# c #070707",
".a c #090909",
".b c #0c0c0c",
".c c #0d0d0d",
".d c #171717",
".e c #181818",
".f c #191919",
".g c #1a1a1a",
".h c #1b1b1b",
".i c #1c1c1c",
".j c #1d1d1d",
".k c #1e1e1e",
".l c #1f1f1f",
".m c #202020",
".n c #212121",
".o c #222222",
".p c #232323",
".q c #242424",
".r c #252525",
".s c #262626",
".t c #272727",
".u c #282828",
".v c #292929",
".w c #2a2a2a",
".x c #2b2b2b",
".y c #2c2c2c",
".z c #2d2d2d",
".A c #2e2e2e",
".B c #2f2f2f",
".C c #303030",
".D c #313131",
".E c #323232",
".F c #333333",
".G c #343434",
".H c #353535",
".I c #363636",
".J c #373737",
".K c #383838",
".L c #393939",
".M c #3a3a3a",
".N c #3b3b3b",
".O c #3c3c3c",
".P c #3d3d3d",
".Q c #3e3e3e",
".R c #3f3f3f",
".S c #404040",
".T c #414141",
".U c #424242",
".V c #434343",
".W c #444444",
".X c #454545",
".Y c #464646",
".Z c #474747",
".0 c #484848",
".1 c #494949",
".2 c #4a4a4a",
".3 c #4b4b4b",
".4 c #4c4c4c",
".5 c #4d4d4d",
".6 c #4e4e4e",
".7 c #4f4f4f",
".8 c #505050",
".9 c #515151",
"#. c #525252",
"## c #535353",
"#a c #545454",
"#b c #555555",
"#c c #565656",
"#d c #575757",
"#e c #585858",
"#f c #595959",
"#g c #5a5a5a",
"#h c #5b5b5b",
"#i c #5c5c5c",
"#j c #5d5d5d",
"#k c #5e5e5e",
"#l c #5f5f5f",
"#m c #606060",
"#n c #616161",
"#o c #626262",
"#p c #636363",
"#q c #646464",
"#r c #666666",
"#s c #676767",
"#t c #686868",
"#u c #696969",
"#v c #6a6a6a",
"#w c #6b6b6b",
"#x c #6c6c6c",
"#y c #6e6e6e",
"#z c #6f6f6f",
"#A c #707070",
"#B c #747474",
"#C c #757575",
"#D c #767676",
"#E c #777777",
"#F c #787878",
"#G c #797979",
"#H c #7c7c7c",
"#I c #7d7d7d",
"#J c #7e7e7e",
"#K c #7f7f7f",
"#L c #808080",
"#M c #818181",
"#N c #848484",
"#O c #858585",
"#P c #868686",
"#Q c #878787",
"#R c #888888",
"#S c #898989",
"#T c #8b8b8b",
"#U c #8d8d8d",
"#V c #8e8e8e",
"#W c #8f8f8f",
"#X c #909090",
"#Y c #919191",
"#Z c #929292",
"#0 c #949494",
"#1 c #959595",
"#2 c #969696",
"#3 c #979797",
"#4 c #989898",
"#5 c #999999",
"#6 c #9a9a9a",
"#7 c #9b9b9b",
"#8 c #9c9c9c",
"#9 c #9d9d9d",
"a. c #9e9e9e",
"a# c #9f9f9f",
"aa c #a0a0a0",
"ab c #a1a1a1",
"ac c #a2a2a2",
"ad c #a3a3a3",
"ae c #a4a4a4",
"af c #a5a5a5",
"ag c #a6a6a6",
"ah c #a7a7a7",
"ai c #a8a8a8",
"aj c #a9a9a9",
"ak c #aaaaaa",
"al c #ababab",
"am c #acacac",
"an c #adadad",
"ao c #aeaeae",
"ap c #afafaf",
"aq c #b0b0b0",
"ar c #b1b1b1",
"as c #b2b2b2",
"at c #b3b3b3",
"au c #b4b4b4",
"av c #b5b5b5",
"aw c #b6b6b6",
"ax c #b7b7b7",
"ay c #b8b8b8",
"az c #b9b9b9",
"aA c #bababa",
"aB c #bbbbbb",
"aC c #bcbcbc",
"aD c #bdbdbd",
"aE c #bebebe",
"aF c #bfbfbf",
"aG c #c0c0c0",
"aH c #c1c1c1",
"aI c #c2c2c2",
"aJ c #c3c3c3",
"aK c #c4c4c4",
"aL c #c5c5c5",
"aM c #c6c6c6",
"aN c #c7c7c7",
"aO c #c8c8c8",
"aP c #c9c9c9",
"aQ c #cacaca",
"aR c #cbcbcb",
"aS c #cccccc",
"aT c #cdcdcd",
"aU c #cecece",
"aV c #cfcfcf",
"aW c #d0d0d0",
"aX c #d1d1d1",
"aY c #d2d2d2",
"aZ c #d3d3d3",
"a0 c #d4d4d4",
"a1 c #d5d5d5",
"a2 c #d6d6d6",
"a3 c #d7d7d7",
"a4 c #d8d8d8",
"a5 c #d9d9d9",
"a6 c #dadada",
"a7 c #dbdbdb",
"a8 c #dcdcdc",
"a9 c #dddddd",
"b. c #dedede",
"b# c #dfdfdf",
"ba c #e0e0e0",
"bb c #e1e1e1",
"bc c #e2e2e2",
"bd c #e3e3e3",
"be c #e4e4e4",
"bf c #e5e5e5",
"bg c #e6e6e6",
"bh c #e8e8e8",
"bi c #e9e9e9",
"bj c #eaeaea",
"bk c #ebebeb",
"bl c #ececec",
"bm c #ededed",
"bn c #eeeeee",
"bo c #efefef",
"bp c #f0f0f0",
"bq c #f1f1f1",
"br c #f2f2f2",
"bs c #f3f3f3",
"bt c #f4f4f4",
"bu c #f5f5f5",
"bv c #f6f6f6",
"bw c #f7f7f7",
"bx c #f8f8f8",
"by c #f9f9f9",
"bz c #fafafa",
"bA c #fbfbfb",
"bB c #fcfcfc",
"bC c #fdfdfd",
"bD c #fefefe",
"bE c #ffffff",
/* pixels */
"bDbDbDbDbDbDbDbDbDbDbDbDbDbDbDbDbDbDbDbDbDbDbDbDbDbDbDbDbDbDbDbDbDbDbEbEbDbDbDbDbDbDbDbDbDbDbDbDbCbEbDbDbDbDbDbDbDbDbDbDbDbDbDbDbDbDbDbDbDbD",
"bDbDbDbDbDbDbDbDbDbDbDbDbDbDbDbDbDbDbDbDbDbDbDbDbDbDbDbDbDbDbDbDbDbDbDbDbDbDbDbDbDbDbDbDbDbDbDbDbEbCbCbDbDbDbDbDbDbDbDbDbDbDbDbDbDbDbDbDbDbD",
"bDbDbDbDbDbDbDbDbDbDbDbDbDbDbDbDbDbDbDbDbDbDbDbDbDbDbDbDbDbDbDbDbDbDbDbDbDbDbEbDbDbDbDbDbDbDbDbDbDbDbDbDbDbDbDbDbDbDbDbDbDbDbDbDbDbDbDbDbDbD",
"bDbDbDbDbDbDbDbDbDbDbDbDbDbDbDbDbDbDbDbDbDbDbDbDbDbDbDbDbDbDbDbDbEbEbDbDbDbCbCbDbDbDbBbDbDbCbCbBbBbDbDbDbDbDbDbDbDbDbDbDbDbDbDbDbDbDbDbDbDbD",
"bDbDbDbDbDbDbDbDbDbDbDbDbDbDbDbDbDbDbDbDbDbDbDbDbDbDbDbDbDbDbDbCbEbDbDbDbCbzbAbBbBbCbBbzbBbDbCbBbCbEbDbEbDbDbDbDbDbDbDbDbDbDbDbDbDbDbDbDbDbD",
"bDbDbDbDbDbDbDbDbDbDbDbDbDbDbDbDbDbDbDbDbDbDbDbDbDbDbDbDbDbDbDbDbDbDbDbDbCbBbDbBbBboa9aPanaXbAbAbBbEbDbDbDbDbDbDbDbDbDbDbDbDbDbDbDbDbDbDbDbD",
"bDbDbDbDbDbDbDbDbDbDbDbDbDbDbDbDbDbDbDbDbDbDbDbDbDbDbDbDbDbDbDbEbDbDbDbDbCbvbcaQaAapaiaiagabaLbCbCbDbDbDbEbDbDbDbDbDbDbDbDbDbDbDbDbDbDbDbDbD",
"bDbDbDbDbDbDbDbDbDbDbDbDbDbDbDbDbDbDbDbDbDbDbDbDbDbDbDbDbCbAbAbCbzbAbAbna9aAaiamalanakaiaiak#5a9bCbybCbCbDbDbDbDbDbDbDbDbDbDbDbDbDbDbDbDbDbD",
"bDbDbDbDbDbDbDbDbDbDbDbDbEbDbDbDbDbDbDbDbDbDbDbDbDbDbDbCbAbzbAbCbxblaVauaoamamapananalajajahalapbAbAbDbDbDbDbDbDbDbDbDbDbDbDbDbDbDbDbDbDbDbD",
"bDbDbDbDbDbDbDbDbDbDbDbDbDbDbDbCbDbDbDbEbDbDbDbDbDbDbDbDbCbzbla9aLatasaraqaoaoalananalalamakaqaca0bCbDbDbDbDbDbDbDbDbDbDbDbDbDbDbDbDbDbDbDbD",
"bDbDbDbDbDbDbDbDbDbDbDbDbDbCbDbDbDbDbDbDbDbDbDbDbDbCbDbqaYaGazaxawaqaoaoaoapapaqaoananamanaqanar#0bebBbDbDbEbDbDbDbDbDbDbDbDbDbDbDbDbDbDbDbD",
"bDbDbDbDbDbDbDbDbDbDbDbDbDbDbDbDbCbDbDbCbBbCbCbDbxbkaZaBaxazazawawavapapapapaoapapaoaqaoasaratavataabwbCbEbEbDbDbDbDbDbDbDbDbDbDbDbDbDbDbDbD",
"bDbDbDbDbDbDbDbDbDbDbDbDbDbDbDbDbCbCbEbDbDbxbnb#aQaDaAaAayayayawavavararararararaqataFatauawaxayazaha5bCbDbDbDbDbDbDbDbDbDbDbDbDbDbDbDbDbDbD",
"bDbDbDbDbDbDbDbDbDbDbDbDbDbDbDbDbCbCbwbka1aKaGaEaCaBaBazaxayayawawavatatatatataxaDataIaNatazaBaDaDaGaabsbDbDbDbDbDbDbDbDbDbDbDbDbDbDbDbDbDbD",
"bDbDbDbDbDbDbDbDbDbBbAbCbCbCbDbDbxbhaUaFaFaEaDaDaDaCaDaDaAazayazavawauawaLaQaNauaSaEaTaZaJaAaCaCaFaEaqapbybAbDbDbDbDbDbDbDbDbDbDbDbDbDbDbDbD",
"bDbDbDbDbDbDbDbDbAbCbBbCbBbwbja5aTaGaGaFaFaFaDaDaDaDaDaDaxaxayazaCaBavaEaTaEaFayaJaWaJaGaUaBaBaFaGaFaMa.aZbAbCbDbDbDbDbDbDbDbDbDbDbDbDbDbDbD",
"bDbDbDbDbDbDbDbCbEbCbwbjaXaGaIaIaDaFaFaGaFaFaCaDaDaDaDaDaEaBaxaHaQaEaAaCaUaCaDaCaAaMaKaDaLaFaEaHaDaGaIaLakblbCbDbDbDbDbDbDbDbDbDbDbDbDbDbDbD",
"bDbDbCbBbBbBbCbCbubaaNaHaHaKaHaGaFaGaFaEaFaFaDaEaCaDaBaEaRaMaEavaPaKaPaBaGaOaJaPaJazaJaDaFaFaHaHaIaHaKaLaGaUbCbDbDbEbDbDbCbDbDbDbDbDbDbDbDbD",
"bDbDbDbCbAbzbAb#aJaBaFaHaHaHaHaHaHaHaHaFaFaFaFaDaCaBaxaOaQaKaSaHaEaMaKaSaxaKaPaSaGaBaFaFaFaGaHaKaKaLaNaRaOagbqbBbBbDbDbDbDbDbDbDbDbDbDbDbDbD",
"bDbDbCbBbcarayaGaDaFaHaHaHaHaHaHaHaHaHaFaFaFaLaRaOaQaDaLaMawazaTaCaNaJaSaBaEaGaGaEaGaIaHaHaIaKaMaOaPaRaRaVaMarbpbAbCbDbDbDbDbDbDbDbDbDbDbDbD",
"bDbDbCbh#E#haAaGaEaDaFaHaHaHaHaHaHaHaHaFaFaFaKaYaDaPaQaCaSaCaJaXaEaEaGaFaCaFaEaEaGaIaIaJaJaKaMaOaRaTaVaUaUaUaIaPbBbCbDbDbDbDbDbCbDbDbDbDbDbD",
"bDbDbCaC#h#eaxaEaFaFaEaDaFaGaIaIaHaJaFaEaFaFaDaQaSaLaNaMaCaNaPaJaAaAaEaEaEaFaEaDaGaIaJaKaMaNaOaQaUaWaWaWaXaXa0aDbwbAbCbAbDbDbDbDbDbDbDbDbDbD",
"bDbDbz#1#g#i#TaIaFaFaEaDaFaFaDaFaDaJaBaBaCaCaAaCaPaJaNaKavaBayaAaAaEaFaFaFaGaGaGaHaJaLaNaPaQaRaTaXaYaYaZa0a0a2aPaGbzbAbBbDbDbDbDbDbDbDbDbDbD",
"bDbEbs#H.8#d#mazaFaFaEaDaFaFaCaHaDaEaEazaBaCaxaCaBaHaBavaAaBazaAaDaBaFaEaFaJaIaIaJaLaOaRaTaUaVaXa0a0a0a2a3a3a5a2aCa2bAbAbDbDbDbDbDbDbDbDbDbD",
"bDbDbp#A.1#d#b#XaGaFaEaDaEaDaxaCazaBaHaAazazazazazawaBaAazazaAaAaDazaEaGaGaJaIaLaLaNaQaUaWaXaYaZa0a0a0a3a4a4a4a7a6avbubybDbDbDbDbDbDbDbDbDbD",
"bDbDbj#u.2.3#b#kaaaFaDaBaAaBaBaDaDazaBaCazazayayayaAaBaAaCaDaDaCaDaEaGaJaIaKaMaLaPaRaTaWaXaZaZaZaZaZaZa3a4a4a5a6a6aZa2bAbEbDbDbDbDbDbDbDbDbD",
"bDbDbg#r.2.5.5###vazaAazazazaCaEaEaBaDaCazazaCaBaBaCaDaDaEaFaFaHaKaKaqavaNaNaLaOaPaRaTaWaXaZaYaZa0a2a2a5a6a6a8a9a9b#aEbibDbDbDbDbDbDbDbDbDbD",
"bDbDbd#p.3.5.3#c#b#4aFayayayazaCaDaCaEaDazaAaCaCaDaDaEaEaFaGaGaHax#j.M###NaIaLaNaPaRaTaWaXaZaZaZa2a3a4a5a7a7a9b.b.b.a6aFbDbDbDbDbDbDbDbDbDbD",
"bDbDbe#w.6.2.0.6#b#vawaBaxaBaAaAaAaAaAaBaCaCaDaDaDaEaFaGaIaKaJaL#N.c.b.d.A#0aQaOaPaRaTaVaXaXaYa0a4a5a5a6a7a9b#bababbbcaTa5bBbAbDbDbDbDbDbDbD",
"bDbDbe#V.5.8.4.Z.9###LaJaAayaBaAaBaBaCaDaEaEaEaEaEaGaGaHaJaKaKaG#6.d...#.a#IaNaLaRaSaVaXaZaZa0a1a5a6a6a6a7b.b.b.b.bababaaUbrbxbDbDbDbDbDbDbD",
"bDbCbkaq#j.7.7.Z.5#c#haaaCaxaBaCaBaEaEaFaGaGaGaGaGaHaIaIaJaKaJaJaJ#V.T.B#iaAaNaPaSaUaWaZa1a1a1a3a5a6a6a6a7b.a8a8a8a8a7b#aVaZbxbDbDbDbDbDbDbD",
"bEbDbyaR#J.6.9.1.0.6#c#CaDaAaBaBaCaFaFaFaHaHaHaHaHaIaIaIaIaJaKaJaMaQaKaBaLaPaSaQaUaWaYa0a2a2a2a3a5a7a6a6a5a2a6a6a7a5a4a3a3azbhbCbDbDbDbDbDbD",
"bDbDbBbnay#q.8.4.1.3###b#5aFaAaGaFaFaFaGaIaHaHaHaHaIaJaIaIaJaMaOaPaPaPaRaSaSaTaTaYa0a1a2a2a0a2a4a2b.a9a9aVa1a9a7a3a1a1a0aXaWaDbubBbAbDbDbDbD",
"bDbDbCbAa0#2#a#..1.Z.5.9#saBaGaCaDaFaFaGaHaHaHaHaHaJaKaKaKaMaOaQaRaQaRaTaUaVaVaUaYa0a1a2a2a6a5a4aXaQa1b#a1aLaNaWaZaXaYaXaWaUaUa9bBbDbDbDbDbD",
"bDbDbBbDbmaB#E.6.7.0.0.4#b#SaHaDaDaFaFaHaHaHaHaHaHaKaLaMaLaNaPaRaSaSaSaTaWaWaXaWaXa0a2a3a1aXaUaYa3aWaZa3a6aUaWaVa0aVaVaUaWaYaTaBbpbBbCbCbCbD",
"bDbDbDbDbAbeao#f#..1.0.1#c#iaeaJaCaFaFaGaHaHaJaLaLaLaMaOaQaSaSaSaTaTaUaUaVaUaZaXa0a3aTaXa2aMa0aVa2aTaWa1aXaVaMaSaTaSaTaSaUaUaVaNajbybCbzbAbD",
"bDbDbDbDbDbyaR#F.6.3.0.Y#b#d#KaTaFaGaGaHaIaIaLaMaMaMaNaPaSaTaTaTaTaTaWaWaVaVaQa1aYaLaRaTaXaMa1aWaXa6aSaSaEaVaVaYaVaSaUaTaVaVaVaZ#JbabBbBbCbD",
"bDbDbDbDbDbCbdae#e.5.Z.Y.2###maraNaIaIaJaKaKaLaLaMaMaNaPaSaTaTaUaUaTaXaXaWaYa2a0a1aWaYa2aUaYaQaYaRaZaSaQaTaTaTaSaSaSaTaTaVaUaVaZ#D#9bAbCbDbD",
"bDbDbDbCbDbDbzaW#2#e.8.3.Y.3###vaCaLaJaLaMaLaMaNaNaNaNaOaRaSaSaTaUaUa1aNaVaWaPaJaQa7aSaXaXa4aXaTaUaYaXaZaWaWaWaTaRaTaTaWaUaVaZaE.Y#ibmbBbBbD",
"bDbDbDbDbDbCbCbjax#y.8.5.Z.2#..9#SaMaLaKaMaMaNaOaOaNaOaOaSaTaUaUaVaUaKaZaXa4aTaZaUaTaZaPa0a2a1aYa0aYaWaWaWaWaWaUaSaQaSaTaWa0aH#n.t.YaYbCbBbD",
"bCbDbDbCbDbDbCbxa3#Y.7.5.3.0.4#.#naLaNaMaMaMaNaOaOaPaQaQaTaUaUaWaXaWaSaXaMaTa0aQa2aRaYaWaYa0aZaXaYaXaUaUaUaUaUaUaUaVaVa2az#L.5.z.v.WaBbAbDbD",
"bDbDbDbDbDbBbDbCbtaH#E.8.6.1.3.7#.#SaOaNaMaMaNaOaOaRaSaSaVaWaWaXaYaYa0aPaSaSaYa0a1a4a2a2aZa0aYaVaWaWaRaSaTaRaRaWaNar#W#z.U.F.G.x.F.LaxbBbDbD",
"bDbDbDbDbDbDbDbCbCbfal#r.8.6.1.3.9#cafaRaNaPaPaQaQaRaSaSaUaVaVaYaZaZa1aYaHaNa1a2a4a5a2a0aYaZaYaWaWaYaWaQaTaVaR#7#l.W.O.y.v.A.D.x.r.waxbDbDbD",
"bDbDbDbDbDbDbDbCbBbxaP#V.7.4.2.2.7#.#raHaLaPaRaSaRaSaTaTaVaWaWaZa0a0a2a1a1a5a5a4a4a4a1a0aZaWaVaTaWaQaRaVaK#S#d.Q.J.y.C.C.w.s.p.j.k.uaCbDbCbD",
"bDbDbDbDbDbDbDbCbCbBblax#p.6.4.1.3#####0aUaQaSaTaUaUaVaVaWaXaXa1a2a2a2a4a6a5a1a3a4a4a2a1aYaWaWaWaUaw#0#F.2.E.J.x.w.y.t.o.n.l.k.k.m.xaJbCbCbD",
"bDbDbDbDbDbDbDbCbCbCbAbb#6#..7.3.Z.5#b#maEaUaSaSaVaWaXaXaYaZaZa3a4a3a3a4a4a5aYa5a3a4a0aXaZaXaTah#q.V.I.u.r.z.F.v.k.j.g.i.l.k.i.i.l.vatbBbCbD",
"bDbDbDbDbDbDbDbDbDbDbDbraD#G.5.8.Z.3.7#.#Ma1aSaTaWaXaXaXaYaZaZa3a4a4a4a4a4a4a0a5a3a1a0a5aS#2#m.V.D.s.s.G.D.q.m.j.f.i.j.i.i.j.i.j.o.taebDbDbD",
"bDbDbDbDbDbDbDbDbDbDbCbAbaai#o#b.5.1.0#.#d#8aWaXaWaZaZaZa0a1a1a3a4a4a4a5a4a3a4a2a1aIad#L#d.F.E.y.x.y.v.m.k.i.i.i.k.i.j.i.j.j.j.q.u.UaWbCbCbD",
"bDbDbDbDbDbDbDbDbEbDbCbzbyaZ#T.5.6.1.2.3#c#qaNa0aXa0a1a1a2a3a3a4a3a3a2a4a4a4a0au#x.4.O.y.t.w.C.v.q.h.g.e.l.j.j.j.i.i.j.j.p.p.q.u.x#rbnbCbCbD",
"bDbDbDbDbDbDbDbDbDbDbCbDbAbkat#n.8.7.1.3#a#caaa5aZa2a3a3a1a7a2a4a5a2a2a9a1ah#n.W.K.x.v.D.B.q.l.h.j.l.l.l.l.j.i.k.m.o.r.v.q.o.x.x.L#1bwbBbCbD",
"bDbDbDbDbDbDbDbDbDbDbCbzbDbya3#1#h#a.1.2.5#.#paCa5a1a1a1a5a4a2a1a3aNah#N#b.I.J.C.x.y.x.p.i.j.k.k.k.l.l.i.i.h.m.o.q.s.s.s.y.L#b#H#9a5bCbAbCbD",
"bDbDbDbDbDbDbDbDbEbDbDbDbEbEbqaJ#P#.#a.1.Y#..9#yaBa6a6a6a3a7a6aG#F.Y.O.F.q.x.F.x.m.i.j.i.g.l.l.i.j.l.l.m.n.n.q.s.u.t.F.2#KagaoaIa6bsbCbDbCbD",
"bDbDbDbDbDbDbDbDbDbDbEbDbDbCbBbfaj#g#a.5.Z.3#c#.#BaFaKaNaE#6#h.S.P.C.s.A.B.r.m.j.j.k.k.j.k.l.k.j.k.m.n.n.t.s.v.w.F.7#SahaqaLbabvbBbBbDbDbCbD",
"bDbDbDbDbDbDbDbDbEbDbDbDbEbDbCbvaP#I#..8.2.Z#.#d#a#g##.0.Q.S.P.z.v.D.C.p.j.j.j.j.l.l.j.i.k.j.l.m.q.r.t.q.z.y.M#m#ZaoaxaTbcbsbBbEbCbDbCbDbDbD",
"bDbDbDbDbDbDbDbDbDbDbDbDbDbDbBbCbqau#v#..8.1.0#b.9.X.Q.G.y.E.w.s.m.k.j.j.k.j.j.j.l.l.k.m.o.p.p.r.u.s.B.R#t#UabaAaXbcbrbzbCbDbCbDbDbDbEbDbDbD",
"bDbDbDbDbDbDbDbDbDbDbDbDbDbDbDbAbyaYaa#f.9.4.0.3.5.1.Z.T.K.u.n.j.j.h.m.j.m.i.j.j.l.l.n.s.t.s.s.u.x.0#MadaraFa3bnbwbCbBbCbAbBbCbDbDbDbDbDbDbD",
"bDbDbDbDbDbDbDbDbDbDbDbDbDbDbDbDbCbmaA#B.3.8.0.0.R.U.L.A.l.l.l.m.j.h.j.j.h.i.m.o.s.v.s.u.q.x.C#.#OaiaqaKa4brbBbDbDbDbDbDbDbDbDbDbDbDbDbDbDbD",
"bDbDbDbDbDbDbDbDbDbDbDbDbDbDbDbDbCbCbhae#c.7.4.1.L.L.n.k.l.l.l.j.i.j.n.n.n.p.p.p.v.u.v.I#c#Ra#ataNa7bobybBbBbCbDbDbDbDbDbDbDbDbDbDbDbDbDbDbD",
"bDbDbDbDbDbDbDbDbDbDbDbDbDbDbDbDbCbCbBaQ#Q.8#..7.M.Q.o.o.k.l.l.k.l.p.r.r.r.v.q.r.u.M#u#4anaAaVbhbxbybCbDbDbDbBbEbDbDbDbDbDbDbDbDbDbDbDbDbDbD",
"bDbDbDbDbDbDbDbDbDbDbDbDbDbDbDbDbCbDbDbhap#s.9#..K.K.n.l.h.j.l.o.p.t.t.u.t.A.y.N#D#7araEaWbobBbCbDbDbCbDbCbAbCbDbDbDbDbDbDbDbDbDbDbDbDbDbDbD",
"bDbDbDbDbDbDbDbDbDbDbDbDbDbDbDbDbDbDbDbza3ab#c##.O.G.m.j.n.p.q.t.s.s.t.C.7#F#3ajaHaZblbxbBbDbDbDbDbDbDbDbDbDbDbDbDbDbDbDbDbDbDbDbDbDbDbDbDbD",
"bDbDbDbDbDbDbDbDbDbDbDbDbDbDbDbDbDbDbDbDbtaG#y.1.N.H.p.p.w.w.u.u.u.G.7#XadauaMbcbsbAbzbDbDbDbEbDbDbDbDbDbDbDbDbDbDbDbDbDbDbDbDbDbDbDbDbDbDbD",
"bDbDbDbDbDbDbDbDbDbDbDbDbDbDbDbDbDbDbDbDbDbdaa##.I.K.u.w.z.w.v.H#m#3anawaWbfbtbCbCbDbCbCbCbCbDbDbDbDbDbDbDbEbDbDbDbDbDbDbDbDbDbDbDbDbDbDbDbD",
"bDbDbDbDbDbDbDbDbDbDbDbDbDbDbDbDbDbDbDbCbzbvaJ#L.S.F.v.A.O.8#Ga#auaIa1bkbwbDbDbDbDbDbDbDbEbDbDbDbDbCbDbDbDbDbDbDbDbDbDbDbDbDbDbDbDbDbDbDbDbD",
"bDbDbDbDbDbDbDbDbDbDbDbDbDbDbDbDbDbDbDbCbzbCbjaxae#l.9#PafasaFa4bpbzbAbDbAbDbDbDbDbDbDbDbDbDbDbDbDbDbDbDbDbDbDbDbDbDbDbDbDbDbDbDbDbDbDbDbDbD",
"bDbDbDbDbDbDbDbDbDbDbDbDbDbDbDbDbDbDbDbCbDbCbya3ataaadauaNb#bwbAbDbCbCbEbCbDbDbDbDbDbDbDbDbDbDbDbDbDbDbDbDbDbDbDbDbDbDbDbDbDbDbDbDbDbDbDbDbD",
"bDbDbDbDbDbDbDbDbDbDbDbDbDbDbDbDbDbDbDbBbDbDbCbzblaVaXbhbvbCbDbDbDbBbDbDbDbDbDbDbDbDbDbDbDbDbDbDbDbDbDbDbDbDbDbDbDbDbDbDbDbDbDbDbDbDbDbDbDbD",
"bDbDbDbDbDbDbDbDbDbDbDbDbDbDbDbDbDbDbDbCbDbDbCbDbCbCbCbBbCbDbDbEbDbDbDbDbDbDbDbDbDbDbDbDbDbDbDbDbDbDbDbDbDbDbDbDbDbDbDbDbDbDbDbDbDbDbDbDbDbD",
"bDbDbDbDbDbDbDbDbDbDbDbDbDbDbDbDbDbDbDbDbDbDbCbDbDbDbBbCbBbDbDbDbDbDbDbDbDbDbEbDbDbDbDbDbDbDbDbDbDbDbDbDbDbDbDbDbDbDbDbDbDbDbDbDbDbDbDbDbDbD",
"bDbDbDbDbDbDbDbDbDbDbDbDbDbDbDbDbDbDbDbDbDbDbDbCbDbBbCbCbCbDbDbDbDbDbDbCbCbDbDbDbDbDbDbDbDbDbDbDbDbDbDbDbDbDbDbDbDbDbDbDbDbDbDbDbDbDbDbDbDbD"
};
