/* XPM */
static char *SHT11[] = {
/* width height num_colors chars_per_pixel */
"    70    70      252            2",
/* colors */
".. c #2c2222",
".# c #648654",
".a c #b9ba7f",
".b c #4c5539",
".c c #647039",
".d c #a78e47",
".e c #bcc2b4",
".f c #846e2c",
".g c #989e5c",
".h c #dcba5c",
".i c #6c5824",
".j c #6c7160",
".k c #848948",
".l c #aca860",
".m c #4c3e04",
".n c #647a42",
".o c #e1cf72",
".p c #ccd6c8",
".q c #84896f",
".r c #5c633a",
".s c #ccaa50",
".t c #7c706b",
".u c #443b3b",
".v c #6c7135",
".w c #e6d9bc",
".x c #a7a791",
".y c #5c5452",
".z c #d4d092",
".A c #6c6161",
".B c #302e1c",
".C c #b0bba4",
".D c #899358",
".E c #544239",
".F c #a89c88",
".G c #ece6e5",
".H c #7c9460",
".I c #d4be99",
".J c #7f7d64",
".K c #748756",
".L c #6f7c40",
".M c #879373",
".N c #6c704a",
".O c #bfa151",
".P c #5f542f",
".Q c #7f7c35",
".R c #9c8c38",
".S c #798867",
".T c #6b815d",
".U c #aab278",
".V c #efce67",
".W c #e2da8e",
".X c #736a6c",
".Y c #c9bd92",
".Z c #edca61",
".0 c #70682c",
".1 c #434837",
".2 c #e7e3c7",
".3 c #342626",
".4 c #646458",
".5 c #645c5a",
".6 c #707d50",
".7 c #627149",
".8 c #a99c54",
".9 c #d7ccbc",
"#. c #e4cf94",
"## c #929e86",
"#a c #837b7d",
"#b c #3a2f2e",
"#c c #54460c",
"#d c #646534",
"#e c #706763",
"#f c #979474",
"#g c #c9c684",
"#h c #dac975",
"#i c #706648",
"#j c #f4e4c8",
"#k c #b7a75c",
"#l c #6e7637",
"#m c #544b40",
"#n c #7f7d47",
"#o c #2b271a",
"#p c #dce0d2",
"#q c #dcd1a8",
"#r c #9c9244",
"#s c #6c764a",
"#t c #443537",
"#u c #cabc68",
"#v c #747075",
"#w c #848859",
"#x c #988c78",
"#y c #7c7275",
"#z c #788e56",
"#A c #605c32",
"#B c #b7b499",
"#C c #63764a",
"#D c #e1d681",
"#E c #f4e6e4",
"#F c #c4c694",
"#G c #e7eadc",
"#H c #7c6a5c",
"#I c #535b3e",
"#J c #4c4a28",
"#K c #c4a66c",
"#L c #b4aa9c",
"#M c #dcd694",
"#N c #ebeae6",
"#O c #d9c88e",
"#P c #4c4838",
"#Q c #6f8251",
"#R c #9cad87",
"#S c #7c6941",
"#T c #c8cdbb",
"#U c #dfd082",
"#V c #444234",
"#W c #a9a6a6",
"#X c #645658",
"#Y c #bcc9ac",
"#Z c #bca27c",
"#0 c #8c7e5c",
"#1 c #7c8855",
"#2 c #74714c",
"#3 c #968c5e",
"#4 c #7b8e67",
"#5 c #ecd07a",
"#6 c #e9e5db",
"#7 c #615d67",
"#8 c #a8a06c",
"#9 c #383628",
"a. c #d8b248",
"a# c #443604",
"aa c #82764c",
"ab c #3f3d29",
"ac c #a49897",
"ad c #6c5e4c",
"ae c #c8b47c",
"af c #bab36e",
"ag c #e4c05c",
"ah c #bcc08c",
"ai c #584c24",
"aj c #949e7c",
"ak c #999989",
"al c #b7a979",
"am c #949457",
"an c #cca244",
"ao c #e4d2bc",
"ap c #b4b4b0",
"aq c #a8905c",
"ar c #8c763c",
"as c #8c8886",
"at c #7c6527",
"au c #b49c50",
"av c #9c9f8c",
"aw c #8c807c",
"ax c #8c7a54",
"ay c #c6bd7f",
"az c #b49a64",
"aA c #a9a09c",
"aB c #dcd8c0",
"aC c #e4c969",
"aD c #ccc6bc",
"aE c #747e5f",
"aF c #e4d0a8",
"aG c #646849",
"aH c #9caea4",
"aI c #d7be77",
"aJ c #acb3a6",
"aK c #574c4e",
"aL c #dac89e",
"aM c #745e34",
"aN c #a4ae74",
"aO c #648254",
"aP c #5c6a48",
"aQ c #e4ded1",
"aR c #8c9a64",
"aS c #8a9a7e",
"aT c #dcd2b8",
"aU c #ccce94",
"aV c #8c764c",
"aW c #ecde8c",
"aX c #544327",
"aY c #bcbfac",
"aZ c #4c4e3f",
"a0 c #6c8e5b",
"a1 c #7c7634",
"a2 c #6c7668",
"a3 c #898e44",
"a4 c #898e74",
"a5 c #7e7664",
"a6 c #a7ae94",
"a7 c #aca27c",
"a8 c #7e8261",
"a9 c #748244",
"b. c #84823c",
"b# c #cac292",
"ba c #444e3c",
"bb c #342a29",
"bc c #a8a258",
"bd c #84827f",
"be c #6f6a46",
"bf c #818249",
"bg c #ccc272",
"bh c #ccd2bc",
"bi c #9ca674",
"bj c #b8ae74",
"bk c #9c9a57",
"bl c #282030",
"bm c #a9a86d",
"bn c #637c4e",
"bo c #5a6346",
"bp c #e4dad4",
"bq c #5a545e",
"br c #e4e6f8",
"bs c #c1a25f",
"bt c #988d48",
"bu c #ecca70",
"bv c #2c2625",
"bw c #968c86",
"bx c #615c41",
"by c #c7c9ac",
"bz c #b8b280",
"bA c #a49644",
"bB c #7d7675",
"bC c #acaea8",
"bD c #42422c",
"bE c #a7965f",
"bF c #c4c284",
"bG c #64763b",
"bH c #34361c",
"bI c #e4d694",
"bJ c #646a3c",
"bK c #ccce84",
"bL c #848e64",
"bM c #c4ae7c",
"bN c #4b4245",
"bO c #3c3635",
"bP c #d4b258",
"bQ c #9ca68c",
"bR c #d7d2c7",
"bS c #544646",
"bT c #646268",
"bU c #f4e6d7",
"bV c #4c4645",
"bW c #dcd8cd",
"bX c #e4c878",
"bY c #6c8856",
"bZ c #545439",
"b0 c #746e6a",
"b1 c #8c8a46",
"b2 c #d4d9cd",
"b3 c #4c3e3e",
"b4 c #747136",
"b5 c #dcd094",
/* pixels */
".G.G.G.G.G.G.G.G.G.G.G.G.G.G.G.G.G.G.G.G.G.G.G.G.G.G.G.G.G.G#6.G#6.G.G.G.G#N.G.G.G.G.G.G.G.G.G.G.G.G.G.G.G.G.G.G.G.G.G.G.G.G.G.G.G.G.G.G.G.G",
".G.G.G.G.G.G.G.G.G.G.G.G.G.G.G.G.G.G.G.G.G.G.G.G.G.G.G.G.G.G.G#6.G.G.G.G.G.G.G.G#N.G.G.G.G.G.G.G.G.G.G.G.G.G.G.G.G.G.G.G.G.G.G.G.G.G.G.G.G.G",
".G.G.G.G.G.G.G.G.G.G.G.G.G.G.G.G.G#E.G.G.G.G.G#E.G.G#N.G.G.GbWbQbWbr.G.G.G#E.G.G.G.G.G.G.G.G.G.G.G.G.G.G.G.G.G.G.G.G.G.G.G.G.G.G.G.G.G.G.G.G",
".G.G.G.G.G.G.G.G.G.G.G.G.G.G.G.G.G.G.G.G.G.G.G.G.G.G.G.G#6#T.MaEaSaQ.G.G.G.G.G.G.G.G.G.G.G.G.G.G.G.G.G.G.G.G.G.G.G.G.G.G.G.G.G.G.G.G.G.G.G.G",
".G.G.G.G.G.G.G.G.G.G.G.G.G.G.G.G.G.G.G.G#E.G.G.G.G.G.G#6.C#4.T.S.KbQ#6.G.G.G.G.G.G.G.G.G.G.G.G.G.G.G.G.G.G.G.G.G.G.G.G.G.G.G.G.G.G.G.G.G.G.G",
".G.G.G.G.G.G.G.G.G.G.G.G.G.G.G.G.G.G.G.G.G.G.G.G.Gbr#pa6.S#z.K.S.K.SaJ.G.G.G.G#N.G.G.G.G.G.G.G.G.G.G.G.G.G.G.G.G.G.G.G.G.G.G.G.G.G.G.G.G.G.G",
".G.G.G.G.G.G.G.G.G.G.G.G.G.G.G.G.G.G.G.G.G.G.G.G#6b2aS.S.g.D.Ja2a2.S.Sby#6.G.G.G.G.G.G#N.G.G.G.G.G.G.G.G.G.G.G.G.G.G.G.G.G.G.G.G.G.G.G.G.G.G",
".G.G.G.G.G.G.G.G.G.G.G.G.G.G#E.G.G.G.G.G.G.Gbr#6by.M.K.K.a#3#2#v.t.j#4#4.p.G.G.G.G.G.G.G.G.G.G.G.G.G.G.G.G.G.G.G.G.G.G.G.G.G.G.G.G.G.G.G.G.G",
".G.G.G.G.G.G.G.G.G.G.G.G.G.Gbr.G#E.G.G.G.G.G#6.C#4.HaN#w#2.X#ybB#yb0aGa4.M#pbr#E.G#N.G.G.G.G.G#N.G.G.G.G.G.G.G.G.G.G.G.G.G.G.G.G.G.G.G.G.G.G",
"#N.G.G.G.G.G.G.G.G.G.G.G.G.G.G.G.G.G.G.G.GbW#R.K#zaRbzbeb0#v#va5.tbBb0.N#zbi#p.G.G.G.G.G#E.G.G.G.G.G.G.G.G.G.G.G.G.G.G.G.G.G.G.G.G.G.G.G.G.G",
".G.G.G.G.G.G.G.G.G.G.G.G.G#N.G.G.G.G.Gbr.p.M.k.aaR.S#e#H.t.X#y#y#v#a#a.Xaab#aT.Gbr#6.G.Gbr.G#N.G.G.G.G.G.G.G.G.G.G.G.G.G.G.G.G.G.G.G.G.G.G.G",
".G.G.G.G.G.G.G.G.G.G.G.G.G.G.G.G.G.G#6.e#4.Daybm.N#e#v.X.X#e.5#e.t#a#a.t#SalaF#j#6.G.G.G#E.G.G#E.G.G.G.G.G.G.G.G.G.G.G.G.G.G.G.G.G.G.G.G.G.G",
".G.G.G.G.G.G.G.G.Gbr#E.G.G.Gbr#Ebr#6a6#Q#1.Ua8a5.Ab0.X.t#y#Pbl.3bBb0.Xb0.t#iae#OaLbU.G.G.G.G.G.G.G.G.G.G.G.G.G.G.G.G.G.G.G.G.G.G.G.G.G.G.G.G",
".G.G.G#Ebr.G#E.G.G.G.G.G.G.G.G.G#paS.T#1.U#2.4.j#e.X.A#e#b.......u#y.t#y#vb0#SaI#.aB.G.G.G.G#Ebr.G.G.G.G.G.G.G.G.G.G.G.G.G.G.G.G.G.G.G.G.G.G",
".G.G.G.G.G#E.G.Gbr#E.G.G.Gbr#GbybL.6bY#Q.Jbx#H#v#e.X.5.3bl......blad.t#v#v#v#Ha5.Ya4aQ.G.G.G.G.G.G.G.G.G.G.G.G.G.G.G.G.G.G.G.G.G.G.G.G.G.G.G",
".G.G.G.G.G.G.G#N.G.G.G.Gbr#6.CaE.K.U#Q#2#e.X.A.A.XaK..........bb.A#v#e.X.A#e#ybTaG.6akbr.G.G.G.G.G.G.G.G.G.G.G.G.G.G.G.G.G.G.G.G.G.G.G.G.G.G",
".G.G.G.G.Gbr#E.G.G.G.Gbr#p#R.6.D#Q.qb0.X.X#e.A.X.u..........#b#va5#e#v#e.A#e.X#ebq#i#n.a#6.Gbr.G#E.G.Gbr#N.G.Gbr#Ebr.G.G.G.G.G.G.G.G.G.G.G.G",
".G.G#N.G.G.G.G.G.G.G.Gb2.M.6.UaN.NaG.t.A.A.X.t#b..........bSb0.t#y.X#eb0b0#e#X.A#vbx#3#OaB.G.G.G.G.G.G#E.G.G.G.G.G.G.G.G.G.G.G.G.G.G.G.G.G.G",
".G.G#N.G.G.G.G.G.G.G.ea8#Q#QahaM.yb0b0.A.A.y..........#oaKa5b0.XbB.t#e#v.t#e.5.A.X.Abe.YaTbU.Gbr.G.G#N.G#N.G.G.G.G.G.G.G.G.G.G.G.G.G.G.G.G.G",
".G.G.G.G.G.G.G.G#paJaEaO.#.6#BaX.5#e.t#e.A..........bb#X#e#y.tb0b0b0.Xb0#e#e#e.A#e.X.A#H.IaL.w.G.G.G.G.G.G.G.G.G.G.G.G.G.G.G.G.G.G.G.G.G.G.G",
".G.G.G.Gbr.G.GbW##bYaObYaOaO.7.taK.A.X.A.Ab3......#t.X.Ab0.X.X#vb0.Xb0.A#e.A.A.A.A#e.A#iaxaL#qaQ#6.G.G.G.G.G.G.G.G.G.G.G.G.G.G.G.G.G.G.G.G.G",
".G.G.Gbr.G#6bR#4.6a9#1a9.6.6aEbx#eaK#e.A.A.X.u..bN.Ab0#e#e.t.A.X.t.tb0.5.X.A.X.5.A.4.X#y#i#0al#f#6br.G.G.G.G.G.G.G.G.G.G.G.G.G.G.G.G.G.G.G.G",
".G.G.G.G.GaYaEa2.k#u#hbg.g.L.Jbq.5#e#X.5#e.A.A.ybx#e.A.Xb0a5b0#e#e#e#e.A#e.A#e.5.X#ebT#e.tbx.4.6bC#6.G.G.G#E.G.G.G.G.G.G.G.G.G.G.G.G.G.G.G.G",
".G.G.G.GbWbd.T.Lbg.Z.V.Z#D#n.J.yaK.A.y#X.5.5.5.X.Xb0#e#e.X.X#e.X.5#e.X.5.4#e#e.A.y.5#e#e.XbB.y.j#nbybr.G.G.G.Gbr.G.G.G.G.G#E.G.G.G.G.G.G.G.G",
".G.G.G.G.9aE.S#n#h.Z.Z.Z.obEadb3bN#m.A#m#X#e.A.A#e#eb0.X.5.5.X.X.A#e.X.5#e#e.5.5.A#e#e#v#e#va2.5bAaLaQ.Gbr.G.G#E.G.G.G.G.G.G.G.G.G.G.G.G.G.G",
".G.G.G.G.9.JaE#1aI.V.V#h.W.kbZ#b#tbS#m.XbSbx.X.t.X.A#e#e#y#e.5#e#e.A.5b0#eb0.X.X#e#e.Ab0#ebBaw#y.faF.w.G.G.G.G#Ebr.G.G.G.G.G.G.G.G.G.G.G.G.G",
".G.G.G.G#6ak#2#1.D#hbI#Dbi#C#sbDb3aK.y.y.taK#e#eb0.X.X.A#e.X.X#e#e.5b0#e#eb0.X#e.5.4#e.Xb0bB#y#a#HaV#OaLaQ#E.G.G#E.G.G.G.Gbr#E.G.G.G.G.G.G.G",
".G.G.G.G.GbW#w.L#1.L#n.L.L#Q#C.7.ubS.y.yaK.t#X.X#e#e.X.A.A.5#e#e#eb0.A#e#e.X.X#e.A.A#e.X#e.t#y#v.Xbxae#5#qaQbr.G.G.G#N.G.G.G.G.G.G.G.G.G.G.G",
".G.G.Gbr#6.Gbh.6a9#1bY.6.L#1bG.nbx#V.y#XbV.5.X.yadbT.5.4#e.5.5.5.5#eb0b0.A.A.X#e.A.5.X.ubl#9.X#ebq.taq#.bzaJ#6.G.G.G.G.G.G.G.G.G.G.G.G.G.G.G",
".G.G.G#6.G.G.G#B#l#QbY#Qbk#h.8.c#sbZ#m#XaK#m.X.5.5b0#e#e.X#e.5.A#e#7.4.X#ebx.5.A#e.Abb..blbl..bV.A#X#0.g.Na2#T.G.G.G.G#E.G.G.G.G.G.G.G.G.G.G",
".G.G.G.G#E.Gbr#6aj.ca9bm.oaC.o#r.Qb4.P.E#P#tb3b0aK.A.X.A.A#e#e.5.X#e.5.A.5.A.5b0.5bv.3bv#o....bl#bab.y#s.T#Q#waT.G.Gbr#E.Gbr.G#E.G.G.G.G.G.G",
".G.G.G.G.G.G.G#6#p#1#Sb1bP.Z.ZaC.o#hayb3#b#b#b.E.t.y.A.A.A#e.X#e.4#e.5.A.A.5.AbVbb.ubSbNbO#bbb..bl.BbZ#C.T.6.gaL#Ebr.G.G.G#N.G.G.G.G.G.G.G.G",
".G.G.G.G.G.G.G.G#6#Taa.da.a..Z.Z.o#UaWbj.3.3#b.ub3.A#m.A.4.5.5.X.X.X.X.A.4#e.ubOaK.y.yaKbSbO#bbbblbb#JaP#C.8.VbXbUbrbr.G.G.Gbr#N.G.G.G.G.G.G",
".G.G.G.G.G.G.G.G.G.G#B#3#KbP.o#h#Ub1bf#n#J.3#b#t#taK#X.y#e.5ad.A#e#e.A#e.A#bb3.ybq.y.y.ybq.u#b#bbv#o#V.N#C.L#hbX#..w#6#E.G.G.G.G.G.G.G.G.G.G",
".G.G.G.G.G.G.G.G.G.G#6aD#ObE#Obg.c.n.nbn#CbDbb#t.u.u.yaK.5.A.Ab0#e#e#v.5bbbV.5.5.ybq#X.5#XaK.u#b#b.3bb.1#C#lb.bX.V#UaF#6.G.G.G.G.G.G.G.G.G.G",
".G.G.G.G.G.G.G.G.G.G.GbU#6#Zaab4#C#C.7#l#l.7bHbb#tab#t.A#m.A#e.A#e#e.ybb.ybq.A#7.A.A.5.5.A#7bVbO#bbO#b#b.b#CbG#raC#5.YaD#6.G#Ebr.G.G.G.G.G.G",
".G.G.G.G.G.G.G.G.G.G.G.G#6a7bxb4.7.vbAaI.L#CaG#o.3#t#t.u.AaK.X.A.tb0bbbV.5#X.5.A.A.A#7.5.5.5#X.ubObObObO#9#Ibn.c.lbm#2.SbW.G.G.G.G.Gbr#E.G.G",
".G.G.G.G.G.G.G.G.Gbr.G.G.GbRbx#A.6#kaC.o#u.v#s#I...3#b#bb3.A.y#eb0.XbV.u.y.5#e.A.A.A.A.5.5#X#7bS#tbObObObOab#Cbn#C#s.T.TaSaQ.G.G.G.G.G.G.G.G",
".G.G.G.G.G.G.G.G.G.G.G#6.G.G#B.P.ibjaCbu.VbcbG#C.1.....3bbaK.A#X.A.X#ebO.5.X#e.AbT.5.A.5.5.5#XaK.u#tbO#t#bbO#I#s.6aO.T.K.TbQbr.G.G.G.G.G.G.G",
".G.G.G.G.G.G.G.G.G.G.G.G.G#6#6#f.ibE.Oag.VaCam#l#sbH....#b#bad.5.A.X.y.u#7#e#e.A#7#X.A.A.5.5.5bqb3bObObO#tbO.1#s#C.L.LbY#zbYap#6br.G.G.G.G.G",
".G.G.G.G.G.G#N.G.G.G.G.G.G.GbrbWaVaq.O.h.V#hbFbG#C.c.B....#b#t.A.y#maK#9.y#7.A.A.5.5.A#X.A#X#7#XbS#tbO#tbO.ubV.7#lb1.Q.LbYa0.K#Y.G.G.G.G.G.G",
".G.G.G.G.G.G.G.G.G.G.G.G.G.G.G.Gao.I#K.d#5ay.c.n.n#C.r...3bb#t#bbb#bbbbb.y.A.A.A.5.5#7.A.5.5#7#XaK.ubO#t#tbV.yaGaybK#hbk.Ka0a0.HbR.G.G.G.G.G",
".G#E.G.G.G.G.G.G.G.G.G.G.G.G.G.G.G#6.waMbE.rbG#C#CbG#C.b...3#b#t.3bv.3bv.y.A.A.A.5.A.A.5.A.5.5#XaKbNb3.ubN.5a5#f.Y#c.f#g#QbYa0.K.M#6.G.G.G.G",
".G.G.G.G.G.G.G.G.G.G.G.G.G.G.G.G.G.G#6adbZ#saP.cb1.gbG#CbD..bbbbbv.3#obbbV#7.A.A.A.5.A.5#X.5#X#7bqbVbNaKbq.t#x.Y.Y.mar.z.6a0a0#1.S.e.G.G.G.G",
".G.G.G.G.G.G.G.G.G.G.G.G.G.G.G.G.Gbr#6aw#J#Ab4bt#h.oa3bG#CbH..bb.3bv.3bb.u#X.A#e.A.A.A#X.A#7.5.5#XbSaK.XbBak.F#3af#M#M.DbYbYbY.M#4.C#6.G.G.G",
".G.G.G.G.G.G.G.G.G.G.G.G.G.G.G.G.G#6#Ebp#i#Jaa.o.V.Z#h.Q.naP.B......#obb#tbV#X#7.A.A.A.A.A.5.5#X#X#7.Xbwac#WaS.c.v.v.cbnbYa0.HbY#Q.Cbr.G.G.G",
".G.G.G.G.G.G.G.G.G.G.G.G.G.G.G.G.G#E#6.GaD.P.i.O.s.Z.V#u.v.nbo#o...3bvbbbO.uaK#X#X.A#7#X.5.A.5.A.A#vasacaAaJ.SbnbG#l.n#Q.K.H#Q.Tak#p#6.G.G.G",
".G.G.G.G.G.G.G.G.G.G.Gbr.G.G.G.G.G.G.Gbrbr#L.ibsauag.Z.V.U#C#C#J..bv.3bbb3.u.ubVaK#X#7.A.A.A.A#e.Xasac#W#WaA.7.nbnbn.n.Ka9.6aE#RaQ.G.G.G.G.G",
".G.G.G.G.G.G.G.G.G.G.G.G.G.G.G.G.G.G#6#6.G#6.F#ZaqaI#UbK.L.nbn.nbD#o#o.3bVaKb3bNbNaK#X.5#e.X.X.tbdacaA#WbCaE.N#l.k.La8#C#C.K.e#G.G#6.G#6.G.G",
".G.G.G.G.G.G.G.G.G.G.G.G.G.G.G.G.G.G.G.G.G#E#6#jbMatae.v.n.nbGbG.7boboab.ubNaK.EbN.y.A#v#y#aawasbwac#WbCak.v.L.aah.6.7.7.Sbh#Gbr.G.G.Gbr.G.G",
".G.G.G.G.G.G.G.G.G.G.G.G.G.G.G.G.G.G.G.G.G.G.GbUaoai#i.c#C.n.L.QbG.nbGaGbD.ubNbSaK#X.5.X#v.tbBbdbw#Wapav.N.k#O.a.6.7aP.Mb2#6.G#6.G.G.G.G.G.G",
".G.G.G.G.G.G.G.G.G.G.G.G.G.G.G.G.G.G.G.G.G.G.G.GbR#mai.N.7.QbF.hbG.n.n#CaPbD.uaKbqbq#7.A.X.X#aas#Wapak.vambKbm#2.r.7###p.G.G.G.G.G.G.G.G.G.G",
".G.G.G.G.G.G.G.G.G.G.G.G.G.G.G.G.G.G.G.G.G.G.G.G.G#x.b.Pb1b5.obuaf.vbG#C#l.7.bbVbq#7#y#a#aasac#LaH.Sb4.l#M.D#d.raGa6#6#N.G.G.G.G.G.G.G.G.G.G",
".G.G.G.G.G.G.G.G.G.G.G.G.G.G.G.G.G.G.G.G.G.G.G#6.Gbp#naiat.sagaC.V.8bta3bkbcambJbeb0a5#aawbdasa8#Cb4bj.zbfbo#IaP.e#6.G.G.G.G.G.G.G.G.G.G.G.G",
".G.G.G.G.G.G.G.G.G.G.G.G.G.G.G.G.G.G.G#E.G.G.G#E.G.Gb2beat.san.Z.V.o#DbI#Mb5#U#k.Rb..N#C#C#s.n.7b.#g.Y#2.P.ba2#T#6br.G#E.G.G.G.G.G.G.G.G.G.G",
".G.G.G.G.G.G.G.G.G.G.G.G.G.G.G.G#E.G.G.G.G.G.G#6.Gbr#6.9atbs.OaC.o#5#kb1b.a1#r#5#h.z.D#lbG.nbG.k#.bj#i.baZa8bW.G.G.G.G.G.G.G.G.G.G.G.G.G.G.G",
".G.G.G.G.G.G.G.G.G.G.G.G.G.G.G.G.G.G.G.Gbr#E.G.G.G.G.G.GaDaLazaz.Wbt.0.c.n#l#rbga#.0aUbG#lbG.g.o#8bx#PaZas#6#6br.G.G.G.G.G.G.G#N.G.G.G.G.G.G",
".G.G.G.G.G.G.G.G.G.G.G.G.G.G.G.G.G.G.G.G.G.G.G.G.G.G.G.G#EbU.Y.ibf.c.c#C#CbGa3#Oai.J#F.c#lbi.z.d.y.1aZ.x#6aQ.G.G.G.G.G.G.G.G.G.G.G.G.G.G.G.G",
".G.G.G.G.G.G.G.G.G.G.G.G.G.G.G.G.G.G.G.G.G.G.G.G.G.G.G.Gbp.G.9aibe#s.7.nbGbG.c.lb5.z#w#C.nbL.J.Pbabx.e#6.G.G.G.G.G.G.G.G.G.G.G.G.G.G.G.G.G.G",
".G.G.G.G.G.G.G.G.G.G.G.G.G.G.G#Ebr.G.G.G.G.G.G.G.G.G.G.Gbr.Gbpbe#A#s.nbG.nbG.c.vb4b4#Cbn.6.6bZaZ.jbhbr.G.G.G.G.G.G.G.G.G.G.G.G.G.G.G.G.G.G.G",
".G.G.G.G.G.G.G.G.G.G.G.G.G.G.G.G.G.G.G.G.G.G.G.G.G.G.G.G.G.G#6aD#d#A.6#C.n.n.n.L#l#l.n.6#s#I#I.SbW.G#6.G.G.G.G.G.G.G.G.G.G.G.G.G.G.G.G.G.G.G",
".G.G.G.G.G.G.G.G.G.G.G.G.G.G.G.G.G.G.G.G.G.G.G.G.G.G.G.G.G.G.G.G.U.r.r.KaObnbnbnbnbn.6.7#I.5###6.G#6.G.G.G.G.G.G.G.G.G.G.G.G.G.G.G.G.G.G.G.G",
".G.G.G.G.G.G.G.G.G.G.G.G.G.G.G.G.G.G.G.G.G.G.G.G.G.G.G.G.G#6.G.G#6#f.r.n#Qbn#Qbnbn.T.NbxboaJ#6#6br.G.G.G.G.G.G.G.G.G.G.G.G.G.G.G.G.G.G.G.G.G",
".G.G.G.G.G.G.G.G.G.G.G.G.G.G.G.G.G.G.G.G.G.G.G#Ebr.G.G.G.G.G.G#6br.2.k.ca9.L#Qa9.K.7aPa2#Y#G.G.G.G.G.G.G.G.G.G.G.G.G.G#N.G.G.G.G.G.G.G.G.G.G",
".G.G.G.G.G.G.G.G.G.G.G.G.G.G.G.G.G.G.G.G.G.G.G.G.G.G.G.G.G.G.G.G.G.Gb2#s.c.K#Q.K#C.cbLb2.G.G.G.G.G.G.G.G.G.G.G.G.G.G.G.G.G.G.G.G.G.G.G.G.G.G",
".G.G.G.G.G.G.G.G.G.G.G.G.G.G.G.G.G.G.G.G.G.G.G.G.G.G.G.G.G.G.G.G.G#6#6by#C.L.S.7.7aS#p.G.G.G.G.G.G.G.G.G.G.G.G.G.G.G.G.G.G.G.G.G.G.G.G.G.G.G",
".G.G.G.G.G.G.G.G.G.G.G.G.G.G.G.G.G.G.G.G.G.G.G.G.G.G.G.G.G.G.G.G.G.G.G#G.U.7.L.7#W#6.G.G.G.G.G.G.G.G.G.G.G.G.G.G.G.G.G.G.G.G.G.G.G.G.G.G.G.G",
".G.G.G.G.G.G.G.G.G.G.G.G.G.G.G.G.G.G.G.G.G.G.G.G.G.G.G.G.G.G.G.G.G.G#E.GaQ#faEaY#6.G.G.G.G.G.G.G.G.G.G.G.G.G.G.G.G.G.G.G.G.G.G.G.G.G.G.G.G.G",
".G.G.G.G.G.G.G.G.G.G.G.G.G.G.G.G.G.G.G.G.G.G.G.G.G.G.G.G.G.G.G.G#N.G.G.G.G#6bR#6.Gbr.G#6.G.G.G.G.G.G.G.G.G.G.G.G.G.G.G.G.G.G.G.G.G.G.G.G.G.G",
".G.G.G.G.G.G.G.G.G.G.G.G.G.G.G.G.G.G.G.G.G.G.G.G.G.G.G.G.G.G.G.G.G.G.G.G.Gbr.G#N.G.G.G.G.G.G.G.G.G.G.G.G.G.G.G.G.G.G.G.G.G.G.G.G.G.G.G.G.G.G"
};
